<?xml version="1.0" encoding="UTF-8"?>
<svg id="Camada_1" data-name="Camada 1" xmlns="http://www.w3.org/2000/svg" viewBox="0 0 469.5 446.04">
  <defs>
    <style>
      .cls-1 {
        stroke: #293170;
      }

      .cls-1, .cls-2 {
        stroke-miterlimit: 10;
      }

      .cls-3 {
        font-family: CreamCake, 'Cream Cake';
        font-size: 126.53px;
      }

      .cls-3, .cls-4, .cls-2 {
        fill: #fff;
      }

      .cls-4, .cls-5 {
        stroke-width: 0px;
      }

      .cls-5 {
        fill: #293170;
        opacity: .23;
      }

      .cls-2 {
        stroke: #000;
      }
    </style>
  </defs>
  <path class="cls-2" d="M326.07,132.88s-21.98,58.29-32.81,82.54c-10.83,24.25-19.88,45.7-8.05,49.34,11.82,3.65,20.16-29.2,23.31-45.2,3.15-16.01,18.11-72.5,23.66-84.79,0,0,.44-1.55,3.74-2.36,3.29-.81,9.06-3.15,12.68-6.2,3.61-3.04,28.99-24.24,17.14-64.29,0,0-6.29-19.85-23.34-6.64,0,0-35.82,26.41-23.33,63.15,0,0,3.32,7.75,5.29,9.97,1.51,1.7,2.02,2.98,1.71,4.49Z"/>
  <path class="cls-5" d="M349.43,51.35s-3.22,64.26-28.6,70.92c0,0-10.27-17.17.55-41.06,0,0,12.36-23.85,28.05-29.86Z"/>
  <path class="cls-5" d="M355.2,50.92s25.79,37.17-19.29,81.47c0,0,21.61-4.28,30.13-32.01,8.52-27.74-1.2-46.55-10.85-49.46Z"/>
  <path class="cls-2" d="M104.98,151.48s28.04,62.86,40.81,82.54c8.65,13.33,15.29,33.66,3.21,37.87-12.63,4.41-20.79-21.8-23.02-32.23-2.24-10.43-25.11-80.08-28.2-87.17-3.08-7.08-8.99-10.46-14.54-14.38-5.55-3.93-10.2-7.14-14.75-20.34-4.55-13.19-12.3-39.86-12.3-39.86l1.93-.67,16.92,37.29s1.23,2.25,2.55,1.79c1.32-.46,1.16-1.46.44-3.31-.72-1.85-14.21-37.76-14.21-37.76l2.37-.83,16.49,36.01s1.42,3.04,2.85,2.54c1.43-.5.88-2.77.52-3.7-.36-.92-14.4-36.76-14.4-36.76l2.43-.85,16.49,37.06s1.2,2.16,3.03,1.52c1.83-.64,1.11-2.2.68-3.29-.43-1.09-15-37.1-15-37.1l1.83-.64s16.22,25.75,21.89,39.06c5.68,13.31,4.23,17.89,2.42,23.5-1.82,5.6-2.57,14.58-.45,19.71Z"/>
  <path class="cls-5" d="M104.16,148.64c-.39.77,22.05,49.78,30,63.34,7.1,12.11,33.36,53.45,15.03,59.84,0,0,5.81-6.66-5.19-29.24,0,0-13.66-28-16.7-33.24-2.87-4.96-15.96-36.27-23.35-56.88,0,0-.32-2.79.21-3.83Z"/>
  <path class="cls-5" d="M56.19,77.91l10.96,36.65s4.54,14.82,11.13,19.76c6.59,4.93,15.17,10.89,17.09,14,0,0-1.66-20.39-17.27-32.26,0,0-1.76,1.34-3.4-2.1-1.64-3.44-16.57-36.73-16.57-36.73l-1.93.67Z"/>
  <path class="cls-4" d="M81.12,69.21l19.39,33.71s8.38,14.85,6.43,22.56c-1.99,7.92-3.92,16.05-3.21,19.59,0,0,1.58-28.16-9.93-34.9,0,0,1.7-.31.63-3.03-1.38-3.53-15.2-37.27-15.2-37.27l1.88-.66Z"/>
  <path class="cls-2" d="M230.42,201.96l-2.62-194.02s-.25-7.44-2.4-7.44c0,0-12.77.06-15.86,31.47-2.9,29.49-7.72,76.97,7.38,93.1,0,0,4.52,8.15.8,29.43-3.11,17.8-12.52,68.77,3.17,68.77,0,0,9.52.02,9.52-21.31Z"/>
  <path class="cls-5" d="M229.29,130.72s.88,26.31.55,41.01c-.32,14.47,6.18,63.79-8.95,63.81,0,0,5.23-4.66,5.79-30.57-.65-59.39.39-59.53.39-62.47,0,0,2.19-11.09,2.21-11.78Z"/>
  <path class="cls-5" d="M225.41.5s-11.02,2.34-14.91,24.33c-3.89,22-7.85,85.38,4.28,97.53,0,0,10.31-53.41,10.63-121.86Z"/>
  <path class="cls-1" d="M81.34,238.73v-18.63h21.82s-6.63-46.99,133.52-46.99c123.31,0,128.83,44.05,127.18,46.99h24.1v18.63s81.04.83,81.04,74.29c0,0-6.47,66.91-81.04,66.91v16.92h-24.1s2.07,48.69-129.11,48.69-131.59-44.22-131.59-48.69h-21.82l.03-17.26S.5,377.24.5,309.32c0,0,1.49-68.11,80.84-70.59Z"/>
  <path class="cls-4" d="M88.34,243.46v-17.51h20.83s-6.32-44.15,127.42-44.15c117.68,0,122.95,41.39,121.37,44.15h23v17.51s77.34.78,77.34,69.81c0,0-6.17,62.88-77.34,62.88v15.9h-23s1.98,45.76-123.21,45.76-125.58-41.56-125.58-45.76h-20.83l.03-16.22s-77.17-2.2-77.17-66.02c0,0,1.42-64,77.14-66.34ZM20.2,309.8c0,60.23,74.41,62.31,74.41,62.31l-.03,15.3h20.08c0,3.96.38,43.18,121.08,43.18s118.79-43.18,118.79-43.18h22.17v-15.01c68.62,0,74.57-59.33,74.57-59.33,0-65.14-74.57-65.88-74.57-65.88v-16.52h-22.17c1.52-2.6-3.55-41.66-117.01-41.66-128.95,0-122.86,41.66-122.86,41.66h-20.08v16.52c-73.01,2.21-74.38,62.6-74.38,62.6Z"/>
  <text class="cls-3" transform="translate(87.25 335.04) scale(.93 1)"><tspan x="0" y="0">ServeFixe</tspan></text>
</svg>